# xmcd
#
# Track frame offsets: 
#        150
#        26092
#        49897
#
# Disc length: 1008 seconds
#
# Revision: 2
# Processed by: cddbd v1.5.1PL0 Copyright (c) Steve Scherf et al.
# Submitted via: ExactAudioCopy v0.95a5
#
DISCID=2103ee03
DTITLE=Azumano Sumitada - Kimi Da Kara
DYEAR=1994
DGENRE=JPop
TTITLE0=Kimi Da Kara
TTITLE1=Hitori Izumu - Bokura No Dokuritsu Sengen
TTITLE2=Kimi Da Kara (Karaoke)
EXTD=
EXTT0=
EXTT1=
EXTT2=
PLAYORDER=
